<?xml version="1.0" encoding="utf-8"?>
<!-- Generator: Adobe Illustrator 22.1.0, SVG Export Plug-In . SVG Version: 6.00 Build 0)  -->
<!DOCTYPE svg PUBLIC "-//W3C//DTD SVG 1.1//EN" "http://www.w3.org/Graphics/SVG/1.1/DTD/svg11.dtd">
<svg version="1.1" id="Blue" xmlns="http://www.w3.org/2000/svg" xmlns:xlink="http://www.w3.org/1999/xlink" x="0px" y="0px"
	 viewBox="0 0 129 129" style="enable-background:new 0 0 129 129;" xml:space="preserve">
<style type="text/css">
	.st0{fill:#FFFFFF;}
</style>
<g>
	<circle cx="64.5" cy="64.5" r="60"/>
	<g>
		<rect x="38.7" y="55.6" class="st0" width="11.1" height="35.6"/>
		<path class="st0" d="M67.7,73.5c0-4.6,0.9-9.1,6.6-9.1c5.7,0,5.7,5.3,5.7,9.4v17.3h11V71.6c0-9.6-2.1-16.9-13.3-16.9
			c-5.4,0-9,2.9-10.5,5.7h-0.2v-4.9H56.7v35.6h11V73.5z"/>
		<path class="st0" d="M44.2,50.7c3.5,0,6.4-2.9,6.4-6.4c0-3.5-2.9-6.4-6.4-6.4c-3.5,0-6.4,2.9-6.4,6.4
			C37.8,47.8,40.7,50.7,44.2,50.7z"/>
	</g>
</g>
</svg>
