<?xml version="1.0" encoding="utf-8"?>
<!-- Generator: Adobe Illustrator 22.1.0, SVG Export Plug-In . SVG Version: 6.00 Build 0)  -->
<!DOCTYPE svg PUBLIC "-//W3C//DTD SVG 1.1//EN" "http://www.w3.org/Graphics/SVG/1.1/DTD/svg11.dtd">
<svg version="1.1" id="Blue" xmlns="http://www.w3.org/2000/svg" xmlns:xlink="http://www.w3.org/1999/xlink" x="0px" y="0px"
	 viewBox="0 0 129 129" style="enable-background:new 0 0 129 129;" xml:space="preserve">
<style type="text/css">
	.st0{fill:#FFFFFF;}
</style>
<g>
	<circle cx="64.5" cy="64.5" r="60"/>
	<g>
		<g>
			<path class="st0" d="M33.5,63.5c0.2-10.2,9.5-19.1,19.7-18.7c4.9-0.2,9.4,1.9,13.2,4.9c-1.6,1.8-3.2,3.6-5,5.2
				c-4.5-3.1-10.9-4-15.3-0.4c-6.4,4.4-6.7,14.9-0.5,19.7c6,5.4,17.3,2.7,19-5.6c-3.8-0.1-7.5,0-11.3-0.1c0-2.2,0-4.5,0-6.7
				c6.3,0,12.6,0,18.9,0c0.4,5.3-0.3,10.9-3.6,15.2c-4.9,6.9-14.8,8.9-22.4,6C38.3,80,32.8,71.8,33.5,63.5z"/>
			<path class="st0" d="M84.3,56c1.9,0,3.7,0,5.6,0c0,1.9,0,3.8,0,5.6c1.9,0,3.8,0,5.6,0c0,1.9,0,3.7,0,5.6c-1.9,0-3.7,0-5.6,0
				c0,1.9,0,3.8,0,5.6c-1.9,0-3.7,0-5.6,0c0-1.9,0-3.7,0-5.6c-1.9,0-3.8,0-5.6-0.1c0-1.9,0-3.7,0-5.6c1.9,0,3.7,0,5.6,0
				C84.2,59.8,84.3,57.9,84.3,56z"/>
		</g>
	</g>
</g>
</svg>
